Tool - Ænima - CD remaster by MC Lurken (a.k.a. Beavis39)



!!!!!!!!!!!!!THIS IS NOT AN OFFICIAL REMASTER, THIS IS A FAN RELEASE!!!!!!!!!!!!!!
!!!!!!!!!!!!!THIS IS NOT AN OFFICIAL REMASTER, THIS IS A FAN RELEASE!!!!!!!!!!!!!!
!!!!!!!!!!!!!THIS IS NOT AN OFFICIAL REMASTER, THIS IS A FAN RELEASE!!!!!!!!!!!!!!



1 - Stinkfist
2 - Eulogy
3 - H.
4 - Useful Idiot
5 - Forty Six & 2
6 - Message To Harry Manback
7 - Hooker With A Penis
8 - Intermission
9 - Jimmy
10 - Die Eier Von Satan
11 - Pushit
12 - Cesaro Summability
13 - Ænima
14 - (-) Ions
15 - Third Eye



foobar2000 1.1.13 / Dynamic Range Meter 1.1.1
log date: 2012-07-07 16:16:52

--------------------------------------------------------------------------------
Analyzed: ? / ?
--------------------------------------------------------------------------------

DR         Peak         RMS     Duration Track
--------------------------------------------------------------------------------
DR8       -0.21 dB    -9.97 dB      5:11 ?-01 - Stinkfist
DR8       -0.20 dB   -10.84 dB      8:29 ?-02 - Eulogy
DR7       -0.21 dB   -11.11 dB      6:07 ?-03 - H.
DR14      -3.00 dB   -26.32 dB      0:39 ?-04 - Useful Idiot
DR7       -0.22 dB    -9.91 dB      6:04 ?-05 - Forty Six & 2
DR18     -10.89 dB   -31.49 dB      1:53 ?-06 - Message To Harry Manback
DR6       -0.34 dB    -9.08 dB      4:34 ?-07 - Hooker With A Penis
DR12     -11.71 dB   -26.92 dB      0:56 ?-08 - Intermission
DR7       -0.20 dB    -9.70 dB      5:24 ?-09 - Jimmy
DR9       -2.17 dB   -12.78 dB      2:17 ?-10 - Die Eier Von Satan
DR7       -0.17 dB   -10.47 dB      9:56 ?-11 - Pushit
DR11      -0.55 dB   -17.03 dB      1:26 ?-12 - Cesaro Summability
DR8       -0.20 dB    -9.64 dB      6:40 ?-13 - Ænima
DR13      -0.62 dB   -18.87 dB      4:00 ?-14 - (-) Ions
DR8       -0.18 dB   -10.78 dB     13:47 ?-15 - Third Eye
--------------------------------------------------------------------------------

Number of tracks:  15
Official DR value: DR10

Samplerate:        44100 Hz
Channels:          2
Bits per sample:   16
Bitrate:           1411 kbps
Codec:             PCM



For maximum quality decode your flac files to a write speed limited drive such as a flash drive, Experiment with this yourself to understand what I'm talking about. Any questions feel free to ask.


Please seed as much as you can. Your help will be appreciated.




enjoy :)



